<?xml version="1.0" encoding="UTF-8" standalone="no"?>
<!DOCTYPE svg PUBLIC "-//W3C//DTD SVG 1.1//EN" "http://www.w3.org/Graphics/SVG/1.1/DTD/svg11.dtd">
<svg width="100%" height="100%" viewBox="0 0 3078 1459" version="1.1" xmlns="http://www.w3.org/2000/svg" xmlns:xlink="http://www.w3.org/1999/xlink" xml:space="preserve" xmlns:serif="http://www.serif.com/" style="fill-rule:evenodd;clip-rule:evenodd;stroke-linejoin:round;stroke-miterlimit:2;">
    <g transform="matrix(1,0,0,1,-215.18,-510.982)">
        <g transform="matrix(1,0,0,1,37.4099,37.4099)">
            <g transform="matrix(4.23654,0,0,4.46786,-755.969,-3361.84)">
                <path d="M706.841,1061.58L687.882,1121.21L683.17,1130.54L675.967,1137.77L666.894,1142.44L656.573,1144.11L613.834,1144.11L613.834,1150.46L690.345,1150.46L690.345,1184.86L610.78,1184.86L604.481,1184.22L598.573,1182.39L593.242,1179.49L588.615,1175.67L584.798,1171.05L581.905,1165.72L580.071,1159.81L579.434,1153.51L579.434,1125.49L579.066,1121.85L579.066,1094.84L552.679,1094.84L552.679,1060.47L582.105,1060.47L588.247,1061.08L594.095,1062.85L599.488,1065.73L604.26,1069.64L608.173,1074.42L611.051,1079.81L612.829,1085.66L613.436,1091.8L613.436,1109.74L655.463,1109.74L670.775,1061.58L706.841,1061.58Z" style="fill:rgb(53,52,52);"/>
            </g>
            <g transform="matrix(2.47042,0,0,2.6053,-470.424,-1055.12)">
                <path d="M402.268,651.229L1089.04,651.229L1089.04,708.665L376.724,708.665L363.126,706.052L352.038,698.97L344.568,688.457L341.81,675.564C341.809,669.156 341.808,657.766 341.81,655.549L346.726,639.512L341.811,655.195C341.811,649.52 338.059,644.199 332.383,644.199C326.707,644.199 322.955,649.52 322.955,655.195L322.955,787.543C322.955,793.219 326.707,798.539 332.383,798.539C338.059,798.539 341.811,793.219 341.811,787.543C341.811,781.867 338.059,776.547 332.383,776.547L332.383,719.11C370.564,719.11 402.384,749.362 402.384,787.543C402.384,825.724 370.564,855.976 332.383,855.976C294.202,855.976 262.382,825.724 262.382,787.543L262.382,655.195C262.382,617.014 294.202,586.763 332.383,586.763C369.232,586.763 400.155,614.94 402.268,651.229Z" style="fill:rgb(41,91,43);"/>
            </g>
            <g transform="matrix(2.47042,0,0,2.6053,-106.042,-710.318)">
                <path d="M323.102,713.746L262.53,713.965C262.53,713.965 262.382,677.155 262.382,655.195C262.382,617.014 294.202,586.763 332.383,586.763L332.383,644.199C326.707,644.199 322.955,649.52 322.955,655.195C322.955,677.074 323.102,713.746 323.102,713.746Z" style="fill:rgb(41,91,43);"/>
            </g>
            <g transform="matrix(2.47042,0,0,2.6053,88.414,-710.318)">
                <path d="M332.383,586.763C370.564,586.763 402.384,617.014 402.384,655.195C402.384,693.377 370.564,723.628 332.383,723.628C294.202,723.628 262.382,693.377 262.382,655.195C262.382,617.014 294.202,586.763 332.383,586.763ZM332.383,644.199C326.707,644.199 322.955,649.52 322.955,655.195C322.955,660.871 326.707,666.192 332.383,666.192C338.059,666.192 341.811,660.871 341.811,655.195C341.811,649.52 338.059,644.199 332.383,644.199Z" style="fill:rgb(41,91,43);"/>
            </g>
            <g transform="matrix(2.47042,0,0,2.6053,451.969,-710.318)">
                <path d="M345.487,666.192L345.487,723.628L332.383,723.628C294.202,723.628 262.382,693.377 262.382,655.195C262.382,617.014 294.202,586.763 332.383,586.763L345.12,586.763L345.12,644.199L332.383,644.199C326.707,644.199 322.955,649.52 322.955,655.195C322.955,660.871 326.707,666.192 332.383,666.192L345.487,666.192Z" style="fill:rgb(41,91,43);"/>
            </g>
            <g transform="matrix(2.47042,0,0,2.6053,1048.84,-705.85)">
                <path d="M323.12,721.221L262.548,721.426C262.548,721.426 262.382,677.148 262.382,655.195C262.382,617.014 294.202,586.763 332.383,586.763L473.704,586.763L473.704,644.199L332.383,644.199C326.707,644.199 322.955,649.52 322.955,655.195C322.955,677.081 323.12,721.221 323.12,721.221Z" style="fill:rgb(41,91,43);"/>
            </g>
            <g transform="matrix(2.47042,0,0,2.6053,678.796,-710.318)">
                <path d="M401.372,666.192L401.372,723.628L332.383,723.628C294.202,723.628 262.382,693.377 262.382,655.195C262.382,617.014 294.202,586.763 332.383,586.763C370.564,586.763 402.384,617.014 402.384,655.195L341.811,655.195C341.811,649.52 338.059,644.199 332.383,644.199C326.707,644.199 322.955,649.52 322.955,655.195C322.955,660.871 326.707,666.192 332.383,666.192L401.372,666.192Z" style="fill:rgb(41,91,43);"/>
            </g>
            <g transform="matrix(2.47042,0,0,2.6053,-202.696,-325.636)">
                <path d="M742.538,586.763L743.523,586.774L758.039,587.122L919.928,586.819L919.928,577.109C916.834,577.493 913.686,577.69 910.499,577.69C872.318,577.69 840.499,547.438 840.499,509.257L901.071,509.257C901.071,514.933 904.824,520.253 910.499,520.253C915.603,520.253 919.623,516.344 919.928,511.095L919.928,509.257L980.487,508.412C980.529,509.777 980.533,511.127 980.5,512.463L980.5,607.061L979.707,614.509L977.416,621.514L969.051,633.308L956.631,641.263L949.247,643.449L941.394,644.216L757.867,644.559L756.801,644.547L742.266,644.199L224.031,644.199C218.356,644.199 214.603,649.52 214.603,655.195L214.603,787.543C214.603,793.219 218.356,798.539 224.031,798.539C229.707,798.539 233.46,793.219 233.46,787.543C233.46,781.867 229.707,776.547 224.031,776.547L224.031,719.11C262.213,719.11 294.032,749.362 294.032,787.543C294.032,825.724 262.213,855.976 224.031,855.976C185.85,855.976 154.031,825.724 154.031,787.543L154.031,655.195C154.031,617.014 185.85,586.763 224.031,586.763L742.538,586.763Z" style="fill:url(#_Linear1);"/>
            </g>
            <g transform="matrix(2.47042,0,0,2.6053,-126.348,40.1161)">
                <path d="M355.174,590.64L415.747,590.675C415.747,590.675 415.719,633.282 415.719,655.195C415.719,693.377 383.9,723.628 345.719,723.628L344.416,723.628C305.373,723.628 274.415,694.304 274.415,659.081C274.415,639.3 274.664,513.693 274.664,513.693L335.237,513.801C335.237,513.801 334.987,639.314 334.987,659.081C334.987,663.427 339.599,666.192 344.416,666.192L345.719,666.192C351.394,666.192 355.147,660.871 355.147,655.195C355.147,633.27 355.174,590.64 355.174,590.64Z" style="fill:rgb(53,52,52);"/>
            </g>
            <g transform="matrix(2.47042,0,0,2.35039,435.925,217.258)">
                <path d="M342.475,655.195C340.403,695.463 309.461,726.743 272.585,726.743C234.404,726.743 202.584,693.21 202.584,650.888C202.584,608.566 234.404,575.033 272.585,575.033C275.853,575.033 279.076,575.279 282.235,575.755C282.271,559.039 282.305,543.873 282.326,534.912L283.118,526.862L285.368,519.291L293.555,506.558L305.689,497.983L312.897,495.635L320.558,494.822L455.958,494.822L455.958,558.314L342.68,558.314C342.617,586.922 342.531,627.485 342.509,647.294C342.56,648.484 342.586,649.683 342.586,650.888C342.586,652.138 342.558,653.38 342.503,654.614C342.503,654.814 342.503,655.008 342.503,655.195L342.475,655.195ZM272.585,638.699C266.909,638.699 263.156,644.597 263.156,650.888C263.156,657.179 266.909,663.077 272.585,663.077C278.261,663.077 282.013,657.179 282.013,650.888C282.013,644.597 278.261,638.699 272.585,638.699Z" style="fill:rgb(53,52,52);"/>
            </g>
            <g transform="matrix(2.47042,0,0,2.6053,69.6691,-171.762)">
                <path d="M336.29,663.77L275.718,663.77C275.718,625.589 307.537,595.337 345.719,595.337L408.809,595.337L408.809,652.774L345.719,652.774C340.043,652.774 336.29,658.094 336.29,663.77Z" style="fill:rgb(53,52,52);"/>
            </g>
            <g transform="matrix(2.47042,0,0,2.6053,604.894,40.1161)">
                <path d="M430.434,666.192L430.434,723.628L361.739,723.628C323.558,723.628 291.738,693.377 291.738,655.195C291.738,617.014 323.558,586.763 361.739,586.763C399.92,586.763 431.74,617.014 431.74,655.195L371.167,655.195C371.167,649.52 367.415,644.199 361.739,644.199C356.063,644.199 352.311,649.52 352.311,655.195C352.311,660.871 356.063,666.192 361.739,666.192L430.434,666.192Z" style="fill:rgb(53,52,52);"/>
            </g>
            <g transform="matrix(3.91731,0,0,3.44404,-4687.74,-684.01)">
                <path d="M1975.54,438.092L1954.93,438.092L1954.93,539.964L1941.18,539.964L1941.18,394.646C1941.18,388.069 1943.48,384.88 1948.23,384.88L1976.07,384.88L1976.07,404.212L1954.93,404.212L1954.93,420.554L1975.54,420.554L1975.54,438.092ZM1815.55,539.872L1815.55,384.157L1843.11,384.061C1851.65,384.061 1855.92,389.258 1855.92,399.452L1855.92,523.978C1855.92,534.571 1851.65,539.768 1843.11,539.768L1815.55,539.872ZM1830.88,403.449L1830.88,520.38L1840.78,520.38L1840.78,403.449L1830.88,403.449ZM1905.2,539.734L1889.87,539.768L1889.87,494.595L1879.98,494.595L1879.98,539.768L1864.84,539.725L1864.84,384.077L1897.44,384.061C1901.52,384.061 1905.2,389.858 1905.2,393.855L1905.2,479.604C1905.2,484.001 1902.88,486.4 1898.02,487C1902.88,487.799 1905.2,490.198 1905.2,493.995L1905.2,539.734ZM1889.87,478.205L1889.87,403.449L1879.98,403.449L1879.98,478.205L1889.87,478.205ZM1914.91,539.74L1914.91,384.196L1930.04,384.196L1930.04,539.74L1914.91,539.74ZM2020.28,539.768L1995.24,539.768C1990,539.768 1987.48,536.57 1987.48,529.974L1987.48,459.016L1982.63,459.016L1982.63,441.427L1987.48,441.427L1987.48,384.862L2002.81,384.862L2002.81,441.427L2026.68,441.427L2026.68,459.016L2002.81,459.016L2002.81,520.18L2012.51,520.18L2012.51,477.205L2027.65,477.205L2027.65,529.974C2027.65,536.57 2025.13,539.768 2020.28,539.768ZM1849.08,653.9L1828.46,653.9L1828.46,757.631L1814.72,757.631L1814.72,609.66C1814.72,602.963 1817.01,599.716 1821.77,599.716L1849.6,599.716L1849.6,619.401L1828.46,619.401L1828.46,636.042L1849.08,636.042L1849.08,653.9ZM1886.08,757.802L1863.52,757.802C1858.77,757.802 1856.48,754.555 1856.48,747.858L1856.48,609.66C1856.48,602.963 1858.77,599.716 1863.52,599.716L1886.08,599.716C1890.83,599.716 1893.12,602.963 1893.12,609.66L1893.12,714.171L1870.22,714.171L1870.22,738.726L1879.2,738.726L1879.2,730.609L1893.12,730.609L1893.12,747.858C1893.12,754.555 1890.83,757.802 1886.08,757.802ZM1879.2,696.313L1879.2,619.401L1870.22,619.401L1870.22,696.313L1879.2,696.313ZM1942.99,599.77L1932.27,757.802L1906.9,757.802L1898.58,599.77L1912.89,599.716L1919.76,742.785L1928.4,599.716L1942.99,599.77ZM1976.88,757.802L1954.33,757.802C1949.57,757.802 1947.28,754.555 1947.28,747.858L1947.28,609.66C1947.28,602.963 1949.57,599.716 1954.33,599.716L1976.88,599.716C1981.64,599.716 1983.93,602.963 1983.93,609.66L1983.93,714.171L1961.02,714.171L1961.02,738.726L1970.01,738.726L1970.01,730.609L1983.93,730.609L1983.93,747.858C1983.93,754.555 1981.64,757.802 1976.88,757.802ZM1970.01,696.313L1970.01,619.401L1961.02,619.401L1961.02,696.313L1970.01,696.313ZM2027.67,757.758L2013.76,757.792L2013.76,711.966L2004.78,711.966L2004.78,757.792L1991.04,757.749L1991.04,599.85L2020.63,599.834C2024.33,599.834 2027.67,605.715 2027.67,609.77L2027.67,696.758C2027.67,701.219 2025.56,703.653 2021.16,704.261C2025.56,705.072 2027.67,707.505 2027.67,711.358L2027.67,757.758ZM2013.76,695.339L2013.76,619.503L2004.78,619.503L2004.78,695.339L2013.76,695.339Z" style="fill:rgb(101,114,129);"/>
            </g>
            <g transform="matrix(1.95903,0,0,3.45154,-1396.82,61.5553)">
                <rect x="1879.56" y="168.799" width="35.336" height="370.416" style="fill:rgb(53,52,52);"/>
            </g>
        </g>
    </g>
    <defs>
        <linearGradient id="_Linear1" x1="0" y1="0" x2="1" y2="0" gradientUnits="userSpaceOnUse" gradientTransform="matrix(765.917,0,0,318.001,184.317,668.257)"><stop offset="0" style="stop-color:rgb(53,52,52);stop-opacity:1"/><stop offset="1" style="stop-color:rgb(41,91,43);stop-opacity:1"/></linearGradient>
    </defs>
</svg>
